<svg id="Layer_1" data-name="Layer 1" xmlns="http://www.w3.org/2000/svg" xmlns:xlink="http://www.w3.org/1999/xlink" viewBox="0 0 2499.99 2750.96"><defs><linearGradient id="linear-gradient" x1="4149.46" y1="-1327.64" x2="4774.2" y2="-150.24" gradientTransform="matrix(1, 0, 0, -1, -3438.6, 779.13)" gradientUnits="userSpaceOnUse"><stop offset="0" stop-color="#fc7300"/><stop offset="1" stop-color="#f8007a"/></linearGradient><linearGradient id="linear-gradient-2" x1="2833.43" y1="-644.66" x2="5007.7" y2="-644.66" gradientTransform="matrix(0, -1, -1, 0, 605.33, 5296.04)" xlink:href="#linear-gradient"/><linearGradient id="linear-gradient-3" x1="2545.08" y1="-644.66" x2="5296.04" y2="-644.66" gradientTransform="matrix(0, -1, -1, 0, 605.33, 5296.04)" xlink:href="#linear-gradient"/></defs><g id="b"><g id="c"><path d="M556.66,1944.68V806.27c0-197,217.8-316.11,383.67-209.82l888.25,569.21c153,98,153,321.6,0,419.65L940.33,2154.52c-165.87,106.29-383.67-12.82-383.67-209.82Z" style="fill:url(#linear-gradient)"/><path d="M806.49,2462.61c-285.71,0-518.15-232.34-518.15-517.93V806.27c0-285.59,232.43-517.93,518.13-517.93,98.35,0,194.7,28.44,278.64,82.22l888.23,569.21c149.22,95.58,238.31,258.46,238.31,435.7s-89.11,340.12-238.35,435.74l-888.21,569.18c-83.91,53.78-180.25,82.22-278.61,82.22Zm0-2150.24c-272.45,0-494.1,221.58-494.1,493.9V1944.68c0,272.32,221.65,493.9,494.12,493.9,93.75,0,185.61-27.13,265.66-78.41L1960.36,1791c142.31-91.2,227.27-246.51,227.27-415.52S2102.69,1051.15,1960.39,960l-888.23-569.2c-80.08-51.28-171.94-78.41-265.69-78.41Z" style="fill:url(#linear-gradient-2)"/><path d="M806.49,2751C361.79,2751,0,2389.27,0,1944.68V806.27C0,361.68,361.79,0,806.47,0c153.65,0,303.81,44.18,434.23,127.81L2128.91,697C2361.26,845.82,2500,1099.47,2500,1375.48S2361.25,1905.14,2128.85,2054l-888.18,569.18C1110.28,2706.78,960.13,2751,806.48,2751ZM806.47,24C375,24,24,374.94,24,806.26V1944.68c0,431.32,351,782.24,782.46,782.24,149,0,294.71-42.86,421.23-124l888.18-569.18C2341.36,1889.36,2476,1643.25,2476,1375.47s-134.58-513.86-360-658.28L1227.75,148C1101.19,66.89,955.52,24,806.47,24Z" style="fill:url(#linear-gradient-3)"/></g></g></svg>